<?xml version="1.0" encoding="UTF-8" standalone="no"?>
<svg width="152px" height="149px" viewBox="0 0 152 149" version="1.1" xmlns="http://www.w3.org/2000/svg" xmlns:xlink="http://www.w3.org/1999/xlink">
    <!-- Generator: Sketch 39.1 (31720) - http://www.bohemiancoding.com/sketch -->
    <title>logo-red</title>
    <desc>Created with Sketch.</desc>
    <defs></defs>
    <g id="Page-1" stroke="none" stroke-width="1" fill="none" fill-rule="evenodd">
        <g id="artboard" transform="translate(-80.000000, -60.000000)">
            <g id="logo" transform="translate(80.000000, 60.000000)">
                <ellipse id="Oval" fill-opacity="0.590692935" fill="#D0011B" cx="63.4878049" cy="75.5365854" rx="63.4878049" ry="63.4878049"></ellipse>
                <ellipse id="Oval-Copy-2" fill-opacity="0.590692935" fill="#D0011B" cx="88.5121951" cy="63.4878049" rx="63.4878049" ry="63.4878049"></ellipse>
                <ellipse id="Oval-Copy" fill-opacity="0.590692935" fill="#D0011B" cx="76.4634146" cy="85.7317073" rx="63.4878049" ry="63.4878049"></ellipse>
                <path d="M54.6680976,57.9009306 L54.6680976,50.2860488 L45.365135,50.2860488 L45.365135,57.9009306 L54.6680976,57.9009306 Z M54.6680976,94.5365854 L54.6680976,60.4811707 L45.365135,60.4811707 L45.365135,94.5365854 L54.6680976,94.5365854 Z M79.5261881,66.8429268 L79.5261881,60.5701463 L72.719554,60.5701463 L72.719554,49.6261463 L62.5763345,49.6261463 L62.5763345,60.5034146 L57.5047247,60.5034146 L57.5047247,66.7761951 L62.5763345,66.7761951 L62.5763345,83.5258537 C62.5763345,86.7289756 62.4428711,90.2657561 65.1121394,92.6013659 C67.4477491,94.7367805 70.5174077,94.6700488 71.4516516,94.7367805 C72.1189686,94.8035122 72.8530174,94.8035122 73.5870662,94.8035122 C75.9226759,94.8035122 78.3250174,94.403122 78.9923345,94.2696585 L78.9923345,86.3285854 C77.7911638,86.3285854 76.589993,86.3953171 75.3888223,86.3953171 C75.1886272,86.3953171 73.5870662,86.3953171 72.9864808,85.260878 C72.6528223,84.6602927 72.719554,83.8595122 72.719554,82.4581463 L72.719554,66.8429268 L79.5261881,66.8429268 Z M112.844376,83.2589268 C112.844376,76.7859512 108.039693,73.9832195 102.500962,72.7820488 L97.8964738,71.7810732 C96.7620348,71.5141463 94.2262299,71.1804878 93.2252543,70.5131707 C92.6914007,70.1127805 92.2910104,69.5121951 92.2910104,68.844878 C92.2910104,68.2442927 92.624669,67.3767805 93.8925714,66.7761951 C94.3596934,66.576 95.6943275,66.1756098 97.1624251,66.1756098 C99.3645714,66.1756098 102.167303,67.1765854 104.035791,68.3110244 C104.703108,68.7114146 105.303693,69.1785366 105.904279,69.6456585 L112.243791,63.7732683 C111.309547,63.1059512 110.375303,62.5053659 109.374328,61.9047805 C104.102523,58.9018537 98.9641812,58.5681951 96.7620348,58.5681951 C89.0211568,58.5681951 85.083986,62.1717073 83.4824251,65.0411707 C82.2145226,67.2433171 82.0143275,69.312 82.0143275,70.2462439 C82.0143275,71.0470244 82.1477909,72.7153171 83.0820348,74.5838049 C84.8837909,78.0538537 88.2203763,79.7221463 95.4941324,80.9233171 C99.231108,81.5239024 102.300767,81.7908293 102.367498,84.1931707 C102.367498,86.1283902 100.298815,86.9959024 98.763986,87.329561 C97.629547,87.5964878 96.6953031,87.6632195 96.2281812,87.6632195 C93.3587177,87.6632195 90.2223275,86.3285854 87.9534495,84.5268293 C87.2861324,84.0597073 86.685547,83.459122 86.0849616,82.8585366 C86.0849616,82.8585366 82.2251633,86.324478 80.2952641,88.0574487 C80.0452608,88.2819414 80.2952641,89.5128318 80.2952641,89.5128318 C80.9625812,90.1134171 81.6139373,90.732878 83.6826202,92.0007805 C88.7542299,95.1371707 94.5598885,95.4708293 96.4283763,95.4708293 C101.700181,95.4708293 108.106425,93.6690732 111.176084,89.0645854 C111.776669,88.1970732 112.844376,86.1283902 112.844376,83.2589268 L112.844376,83.2589268 Z" id="its" fill="#FFFFFF"></path>
            </g>
        </g>
    </g>
</svg>